#!OML:ASF H:\Terrain\Patient Classification 1\PLAYGROUND\JustinFriday\JustinFriday.ASF
:FULLY-SPECIFIED
:DEGREES
1429
root -8.22875 29.2067 -8.67055 303.762 84.4016 -4.59356
lowerback 25.2222 1.42435 2.97453
upperback 0.99078 2.80453 -0.730599
thorax -12.8471 1.14554 -3.55469
lowerneck 13.9744 -5.26437 -7.91018
upperneck 31.9561 -7.82505 8.80851
head 8.51759 -3.04713 4.38323
rclavicle 9.14409e-015 -1.66979e-014
rhumerus -7.29961 0.454602 -82.3388
rradius 127.924
rwrist 25.826
rhand -1.27859 -21.4104
rfingers 7.12502
rthumb 24.3652 -49.8815
lclavicle 9.14409e-015 -1.66979e-014
lhumerus -10.6093 -17.889 79.9051
lradius 132.298
lwrist -33.0067
lhand -0.0747573 2.05323
lfingers 7.12502
lthumb 25.5188 30.3643
rfemur -19.655 -8.05567 23.6604
rtibia 87.3029
rfoot 8.93351 -9.5477
rtoes 16.4571
lfemur -20.8313 5.58952 -3.30719
ltibia 82.4626
lfoot 11.0103 -7.57786
ltoes -6.8023
1430
root -8.31245 29.1874 -8.68197 302.665 84.2948 -5.98598
lowerback 25.5165 1.16841 2.76322
upperback 1.33072 2.53641 0.128539
thorax -12.6855 1.08165 -2.365
lowerneck 13.8469 -4.44912 -10.1816
upperneck 31.4374 -6.91568 9.02127
head 8.35255 -2.89993 4.86675
rclavicle -4.37326e-015 -9.93923e-015
rhumerus -6.02451 1.99871 -81.2437
rradius 127.736
rwrist 26.2269
rhand -1.88455 -21.8063
rfingers 7.12502
rthumb 23.7841 -50.3542
lclavicle -4.37326e-015 -9.93923e-015
lhumerus -9.07816 -15.531 78.5998
lradius 131.948
lwrist -31.9837
lhand -2.00291 4.7421
lfingers 7.12502
lthumb 23.6706 33.3047
rfemur -19.9516 -8.15096 23.8192
rtibia 87.6433
rfoot 8.50537 -9.82061
rtoes 19.4552
lfemur -21.047 5.84097 -2.9865
ltibia 82.8481
lfoot 12.1447 -4.97371
ltoes 4.40032
1431
root -8.40077 29.1704 -8.71513 302.803 84.1565 -6.3063
lowerback 25.8433 0.945904 3.35839
upperback 1.53042 2.45076 0.229969
thorax -12.6168 1.02058 -2.56957
lowerneck 13.251 -4.35962 -9.9209
upperneck 31.2455 -6.6399 8.51311
head 8.32126 -2.783 4.62631
rclavicle 9.93923e-015 -4.37326e-015
rhumerus -5.12076 2.39929 -80.9092
rradius 127.552
rwrist 27.1366
rhand -2.88046 -22.2213
rfingers 7.12502
rthumb 22.8287 -50.8903
lclavicle 9.93923e-015 -4.37326e-015
lhumerus -8.14939 -15.7111 77.5724
lradius 131.864
lwrist -32.0666
lhand -5.17025 8.92095
lfingers 7.12502
lthumb 20.6298 37.8446
rfemur -20.429 -8.26675 23.8212
rtibia 87.9712
rfoot 8.43305 -9.5581
rtoes 19.9143
lfemur -21.454 6.14682 -2.84118
ltibia 83.2266
lfoot 12.5022 -2.81312
ltoes 12.8886
1432
root -8.47735 29.1477 -8.69568 304.839 84.3741 -4.91636
lowerback 25.6053 0.988943 3.06552
upperback 1.6769 2.40465 0.161902
thorax -12.3286 1.02577 -2.4506
lowerneck 12.9242 -4.22209 -9.91846
upperneck 31.078 -6.43489 8.51069
head 8.28693 -2.69238 4.61954
rclavicle 1.25234e-014 -7.95139e-016
rhumerus -4.39226 2.22922 -80.8004
rradius 127.533
rwrist 27.1029
rhand -3.08464 -22.1555
rfingers 7.12502
rthumb 22.6327 -50.8485
lclavicle 1.25234e-014 -7.95139e-016
lhumerus -7.49124 -14.4597 77.7502
lradius 131.378
lwrist -31.4388
lhand -2.26644 3.50244
lfingers 7.12502
lthumb 23.4178 32.0975
rfemur -21.1671 -8.27326 23.6426
rtibia 88.3316
rfoot 8.43764 -9.33912
rtoes 19.4146
lfemur -21.7979 6.0114 -3.09908
ltibia 83.1323
lfoot 13.0939 -3.97457
ltoes 8.3983
1433
root -8.5541 29.1134 -8.69192 308.401 84.9406 -1.79131
lowerback 25.4169 1.32559 1.30952
upperback 1.86961 2.3628 0.33087
thorax -12.0836 1.11847 -1.22642
lowerneck 13.026 -4.44603 -8.72573
upperneck 30.6144 -6.47887 7.62188
head 8.04115 -2.66 4.08041
rclavicle -1.25234e-014 -4.69132e-014
rhumerus -3.66129 2.21126 -80.5645
rradius 127.469
rwrist 27.0331
rhand -3.2855 -22.1081
rfingers 7.12502
rthumb 22.4399 -50.8245
lclavicle -1.25234e-014 -4.69132e-014
lhumerus -7.79476 -14.8105 80.0712
lradius 130.74
lwrist -35.1807
lhand -4.94043 6.30627
lfingers 7.12502
lthumb 20.8506 35.2058
rfemur -21.6933 -8.32645 22.9451
rtibia 88.7215
rfoot 8.52501 -8.95093
rtoes 18.7392
lfemur -21.8631 6.04342 -3.92841
ltibia 83.2885
lfoot 12.542 -3.74819
ltoes 8.68286
1434
root -8.65883 29.1401 -8.69461 308.412 85.2211 -1.88156
lowerback 26.1361 1.03644 2.34376
upperback 1.93399 2.22298 -0.340632
thorax -12.3326 0.975659 -2.55692
lowerneck 13.084 -4.35595 -8.66039
upperneck 30.4559 -6.47086 8.19571
head 7.98072 -2.61449 4.26992
rclavicle -2.0276e-014 1.98785e-014
rhumerus -3.43183 1.5336 -81.1582
rradius 127.525
rwrist 27.2671
rhand -3.54759 -22.0372
rfingers 7.12502
rthumb 22.1883 -50.7838
lclavicle -2.0276e-014 1.98785e-014
lhumerus -6.54445 -14.1694 76.9269
lradius 131.016
lwrist -32.8096
lhand -1.90277 0.921112
lfingers 7.12502
lthumb 23.7666 29.4713
rfemur -21.35 -8.6862 22.5234
rtibia 88.6219
rfoot 8.60358 -8.42301
rtoes 17.7408
lfemur -22.2149 4.90103 -4.11112
ltibia 82.9546
lfoot 13.8779 -3.19711
ltoes 11.851
1435
root -8.72463 29.0918 -8.70096 304.981 84.7198 -5.64052
lowerback 26.3599 0.925665 2.49267
upperback 2.0822 2.22411 0.349585
thorax -12.3066 0.996682 -1.86358
lowerneck 13.0247 -4.21205 -9.48355
upperneck 30.4246 -6.27728 7.97671
head 7.98981 -2.63475 4.33874
rclavicle 3.49861e-014 -4.53229e-014
rhumerus -2.65986 2.23179 -80.3456
rradius 127.503
rwrist 27.103
rhand -3.73744 -22.0269
rfingers 7.12502
rthumb 22.0061 -50.795
lclavicle 3.49861e-014 -4.53229e-014
lhumerus -6.05666 -13.4415 76.623
lradius 130.988
lwrist -32.1477
lhand -3.17833 3.27028
lfingers 7.12502
lthumb 22.5428 31.9742
rfemur -21.6233 -8.75535 23.1755
rtibia 88.8289
rfoot 8.80812 -7.92793
rtoes 15.731
lfemur -21.9415 5.96594 -3.51069
ltibia 83.5636
lfoot 11.8504 -7.11751
ltoes -3.61163
1436
root -8.80714 29.0412 -8.70479 305.961 84.5606 -5.15514
lowerback 26.6361 0.940223 2.56268
upperback 2.09023 2.28197 0.395505
thorax -12.4425 1.01903 -1.88142
lowerneck 13.2181 -4.16512 -9.45316
upperneck 30.0791 -6.20818 7.92313
head 7.82637 -2.61651 4.31047
rclavicle -3.45885e-014 1.47101e-014
rhumerus -2.11181 2.15637 -80.1602
rradius 127.493
rwrist 27.021
rhand -3.9468 -22.0187
rfingers 7.12502
rthumb 21.805 -50.8104
lclavicle -3.45885e-014 1.47101e-014
lhumerus -5.72051 -13.474 76.7766
lradius 130.748
lwrist -32.6164
lhand -3.23351 2.4474
lfingers 7.12502
lthumb 22.4898 31.1578
rfemur -22.217 -8.49713 23.4691
rtibia 89.0732
rfoot 8.90786 -7.77839
rtoes 14.6117
lfemur -22.054 6.20717 -3.1405
ltibia 83.6077
lfoot 13.1148 -6.38573
ltoes 1.29934
1437
root -8.8782 29.0039 -8.69752 301.288 84.3627 -9.76888
lowerback 27.0896 0.770906 3.1488
upperback 2.3811 2.24647 0.232101
thorax -12.3189 0.981301 -2.40258
lowerneck 13.1517 -4.33583 -8.37627
upperneck 29.9322 -6.31226 7.6944
head 7.74646 -2.56779 4.03449
rclavicle 1.19271e-014 -4.17448e-014
rhumerus -1.44046 1.69461 -80.5983
rradius 127.377
rwrist 27.233
rhand -4.20512 -21.9927
rfingers 7.12502
rthumb 21.557 -50.813
lclavicle 1.19271e-014 -4.17448e-014
lhumerus -4.79422 -13.3496 76.3435
lradius 130.317
lwrist -32.1128
lhand -3.08229 1.55308
lfingers 7.12502
lthumb 22.635 30.2458
rfemur -21.7795 -8.67082 23.8287
rtibia 89.1539
rfoot 8.58492 -7.54172
rtoes 14.2273
lfemur -21.6455 5.88028 -2.54074
ltibia 83.7105
lfoot 13.8205 -5.9301
ltoes 4.89303
1438
root -8.9602 28.9692 -8.70855 308.369 85.1714 -2.75539
lowerback 27.5362 0.975379 2.20578
upperback 2.59767 2.18111 -0.344467
thorax -12.3168 0.992891 -2.505
lowerneck 13.1643 -4.59001 -6.83914
upperneck 29.7315 -6.44657 7.22172
head 7.61597 -2.50247 3.59505
rclavicle 2.16675e-014 -1.19271e-014
rhumerus -0.974251 0.527381 -80.2271
rradius 127.672
rwrist 26.3298
rhand -4.29207 -22.0913
rfingers 7.12502
rthumb 21.4735 -50.9211
lclavicle 2.16675e-014 -1.19271e-014
lhumerus -4.13611 -14.3261 75.947
lradius 130.008
lwrist -31.4961
lhand -4.77187 2.88157
lfingers 7.12502
lthumb 21.0126 31.7632
rfemur -21.5743 -8.73596 22.4135
rtibia 89.3473
rfoot 8.16592 -7.05483
rtoes 15.7593
lfemur -21.3298 5.60281 -3.88032
ltibia 83.5847
lfoot 13.892 -6.36979
ltoes 2.94933
1439
root -9.01951 28.8972 -8.712 310.759 85.5102 -0.124804
lowerback 28.2904 1.10294 0.615809
upperback 2.75959 2.04498 0.854557
thorax -12.6372 1.05495 -0.186491
lowerneck 14.0089 -3.65872 -9.7009
upperneck 28.7092 -5.42684 7.24189
head 7.14657 -2.3606 4.11573
rclavicle -3.97569e-016 2.34566e-014
rhumerus -0.0358106 2.18299 -78.3727
rradius 127.448
rwrist 25.9333
rhand -4.43843 -22.1635
rfingers 7.12502
rthumb 21.3329 -51.0093
lclavicle -3.97569e-016 2.34566e-014
lhumerus -4.34709 -11.2684 77.4496
lradius 130.048
lwrist -31.2905
lhand -2.34849 -0.423082
lfingers 7.12502
lthumb 23.3391 28.182
rfemur -21.1306 -8.75204 21.7947
rtibia 89.6536
rfoot 7.5084 -7.08842
rtoes 18.628
lfemur -20.9196 5.25973 -4.24832
ltibia 83.6637
lfoot 13.3503 -7.98573
ltoes -1.34038
